<svg xmlns="http://www.w3.org/2000/svg" viewBox="0 0 64 64" role="img" aria-label="Indoor Care icon">
  <defs>
    <linearGradient id="bg" x1="0" y1="0" x2="1" y2="1">
      <stop offset="0%" stop-color="#193b2c" />
      <stop offset="100%" stop-color="#4c8d62" />
    </linearGradient>
    <linearGradient id="leaf" x1="0" y1="0" x2="1" y2="1">
      <stop offset="0%" stop-color="#d6ffb8" />
      <stop offset="100%" stop-color="#8fe275" />
    </linearGradient>
  </defs>

  <rect width="64" height="64" rx="16" fill="url(#bg)" />
  <path d="M32 10c10 8 14 15 14 23 0 9-6 17-15 20-7 2-12 7-14 13-.3.8-1.4.7-1.5-.1-1.2-8 1.4-14.6 7.2-19.4 5.2-4.3 11.8-6.9 11.8-14.5 0-3-1-6.9-2.8-11.3-.3-.8.4-1.6 1.3-1Z" fill="url(#leaf)" />
  <path d="M24 44c5-1.6 9.6-4.6 13.4-8.8" fill="none" stroke="#21563d" stroke-width="2.6" stroke-linecap="round" />
</svg>
